<?xml version="1.0" standalone="no"?>
<!DOCTYPE svg PUBLIC "-//W3C//DTD SVG 20010904//EN"
 "http://www.w3.org/TR/2001/REC-SVG-20010904/DTD/svg10.dtd">
<svg version="1.0" xmlns="http://www.w3.org/2000/svg"
 width="720.000000pt" height="720.000000pt" viewBox="0 0 720.000000 720.000000"
 preserveAspectRatio="xMidYMid meet">
<metadata>
Created by potrace 1.11, written by Peter Selinger 2001-2013
</metadata>
<g transform="translate(0.000000,720.000000) scale(0.100000,-0.100000)"
fill="#000000" stroke="none">
<path d="M4013 5735 c-12 -8 -28 -34 -37 -57 -8 -24 -137 -466 -286 -983 -149
-517 -300 -1039 -335 -1160 -432 -1492 -545 -1891 -545 -1920 0 -58 31 -82
150 -115 145 -40 179 -39 217 10 15 20 1183 4062 1183 4096 0 60 -27 79 -170
118 -109 30 -147 32 -177 11z"/>
<path d="M2245 5156 c-16 -8 -364 -349 -772 -758 l-743 -743 0 -45 0 -45 747
-747 c522 -522 758 -751 780 -759 48 -15 86 7 186 110 87 89 104 120 92 169
-4 18 -209 230 -628 650 l-622 622 622 623 c419 419 624 631 628 650 4 15 4
39 0 54 -8 33 -166 196 -210 217 -39 19 -42 19 -80 2z"/>
<path d="M4845 5156 c-16 -8 -72 -56 -122 -108 -89 -91 -93 -97 -93 -139 l0
-44 627 -627 628 -628 -628 -628 -627 -627 0 -43 c0 -41 5 -48 96 -142 109
-112 143 -131 196 -106 49 24 1505 1484 1513 1519 4 15 4 39 0 55 -8 33 -1463
1494 -1511 1517 -38 18 -41 18 -79 1z"/>
</g>
</svg>
